<?xml version="1.0" encoding="UTF-8"?>
<svg version="1.1" xmlns="http://www.w3.org/2000/svg" width="525" height="159">
<path d="M0 0 C3.0139312 3.24674008 2.41246753 6.75344918 2.30859375 11.015625 C2.31568359 11.83546875 2.32277344 12.6553125 2.33007812 13.5 C2.2657005 19.56140141 2.2657005 19.56140141 0.34399414 21.7734375 C-0.14206299 22.18335937 -0.62812012 22.59328125 -1.12890625 23.015625 C-0.41734375 23.6653125 -0.41734375 23.6653125 0.30859375 24.328125 C3.70140257 27.99235852 3.08855132 32.70226658 3.1875 37.40234375 C3.2082811 38.21935257 3.22906219 39.03636139 3.25047302 39.87812805 C3.31582454 42.48637534 3.37478648 45.09472275 3.43359375 47.703125 C3.47679267 49.47201554 3.5204074 51.24089597 3.56445312 53.00976562 C3.67149118 57.34494963 3.77279919 61.68023429 3.87109375 66.015625 C5.85109375 66.675625 7.83109375 67.335625 9.87109375 68.015625 C9.21109375 69.335625 8.55109375 70.655625 7.87109375 72.015625 C8.9835144 72.045354 8.9835144 72.045354 10.1184082 72.07568359 C13.47383209 72.17085428 16.82862661 72.28056594 20.18359375 72.390625 C21.35083984 72.4215625 22.51808594 72.4525 23.72070312 72.484375 C24.83896484 72.52304688 25.95722656 72.56171875 27.109375 72.6015625 C28.65685425 72.64869385 28.65685425 72.64869385 30.2355957 72.69677734 C32.87109375 73.015625 32.87109375 73.015625 35.87109375 75.015625 C35.98066406 74.37496094 36.09023437 73.73429687 36.203125 73.07421875 C36.69855538 70.37150503 37.26468733 67.69555015 37.87109375 65.015625 C38.01933594 64.32855469 38.16757813 63.64148438 38.3203125 62.93359375 C39.18434059 60.12090655 40.31258167 58.34703002 42.84521484 56.84423828 C49.55873074 54.05201062 55.27472978 53.51495015 62.49609375 53.765625 C64.00236328 53.79269531 64.00236328 53.79269531 65.5390625 53.8203125 C67.98412027 53.86688503 70.42706187 53.93225472 72.87109375 54.015625 C72.33562977 50.94789042 72.33562977 50.94789042 70.2578125 48.77734375 C66.99783793 47.73692633 64.10181286 47.78979635 60.68359375 47.828125 C59.68537598 47.83561768 59.68537598 47.83561768 58.66699219 47.84326172 C54.94331312 47.89480366 51.30899092 48.13634911 47.62109375 48.640625 C43.87109375 49.015625 43.87109375 49.015625 40.87109375 47.015625 C39.24918036 42.64893511 40.11787172 39.23929626 41.87109375 35.015625 C47.89796368 31.33253782 55.88551474 31.8064011 62.74609375 31.765625 C63.60589844 31.745 64.46570313 31.724375 65.3515625 31.703125 C73.60413131 31.65303354 80.32979232 33.72028575 86.87109375 39.015625 C88.12109375 41.703125 88.12109375 41.703125 88.87109375 44.015625 C89.53109375 44.345625 90.19109375 44.675625 90.87109375 45.015625 C92.56117461 50.08586758 92.05701767 55.47847925 92.05639648 60.78466797 C92.05857868 62.87618488 92.07673497 64.96717041 92.09570312 67.05859375 C92.09863826 68.39583154 92.10062225 69.73307182 92.1015625 71.0703125 C92.10567139 72.28187012 92.10978027 73.49342773 92.11401367 74.74169922 C91.70136301 80.3031518 89.684353 83.98446522 85.87109375 88.015625 C80.14340475 90.94080809 73.95583397 90.38767801 67.6887207 90.38623047 C65.57485612 90.39059145 63.46310354 90.42691366 61.34960938 90.46484375 C53.86907135 90.5272046 48.18939192 90.26968414 41.87109375 86.015625 C39.87109375 83.765625 39.87109375 83.765625 38.87109375 82.015625 C37.55109375 84.655625 36.23109375 87.295625 34.87109375 90.015625 C29.28437181 90.08998751 23.69794036 90.14432754 18.11083984 90.18041992 C16.21170022 90.19547191 14.31259516 90.21591816 12.41357422 90.24194336 C9.67797294 90.27848492 6.94283275 90.29538738 4.20703125 90.30859375 C3.36304779 90.32407761 2.51906433 90.33956146 1.64950562 90.35551453 C-3.37072615 90.35693579 -6.76516985 89.77936724 -11.12890625 87.015625 C-15.40486613 81.96647785 -16.25492865 76.402706 -16.26171875 70.01953125 C-16.26397461 68.83020996 -16.26623047 67.64088867 -16.26855469 66.41552734 C-16.2637207 65.14918457 -16.25888672 63.8828418 -16.25390625 62.578125 C-16.24907227 61.28600098 -16.24423828 59.99387695 -16.23925781 58.66259766 C-16.21524684 54.78002323 -16.17625819 50.89798073 -16.12890625 47.015625 C-16.11633789 45.90396973 -16.10376953 44.79231445 -16.09082031 43.64697266 C-16.04591571 40.72679881 -15.97026511 37.80967108 -15.87890625 34.890625 C-15.8648877 34.02767822 -15.85086914 33.16473145 -15.83642578 32.27563477 C-15.5990197 26.48753278 -15.5990197 26.48753278 -13.08203125 23.9609375 C-12.4375 23.64898437 -11.79296875 23.33703125 -11.12890625 23.015625 C-11.77859375 22.70625 -12.42828125 22.396875 -13.09765625 22.078125 C-15.85423411 19.27913825 -15.6508235 17.3185352 -15.67578125 13.5 C-15.6603125 12.68015625 -15.64484375 11.8603125 -15.62890625 11.015625 C-15.65210937 9.78585938 -15.65210937 9.78585938 -15.67578125 8.53125 C-15.63669762 2.55145393 -15.63669762 2.55145393 -13.21875 0 C-8.34594484 -2.29522785 -4.95905281 -2.29299322 0 0 Z M53.87109375 69.015625 C53.62087805 72.09928371 53.62087805 72.09928371 53.87109375 75.015625 C57.40660541 77.20468873 60.32247449 77.28433316 64.43359375 77.265625 C65.56925781 77.27078125 66.70492187 77.2759375 67.875 77.28125 C71.05255801 77.24063227 71.05255801 77.24063227 73.87109375 75.015625 C74.23407311 73.03815378 74.23407311 73.03815378 74.05859375 70.890625 C73.99671875 69.611875 73.93484375 68.333125 73.87109375 67.015625 C71.10000068 66.96170103 68.32995557 66.92199045 65.55859375 66.890625 C64.77291016 66.87386719 63.98722656 66.85710937 63.17773438 66.83984375 C62.42041016 66.83339844 61.66308594 66.82695313 60.8828125 66.8203125 C60.18631592 66.80983887 59.48981934 66.79936523 58.7722168 66.78857422 C56.53992075 66.90987905 56.53992075 66.90987905 53.87109375 69.015625 Z " fill="#122141" transform="translate(43.12890625,21.984375)"/>
<path d="M0 0 C0.7520874 -0.00999023 1.5041748 -0.01998047 2.27905273 -0.03027344 C7.46615918 0.04997796 11.04350159 1.12960772 15.6875 3.4375 C16.80511719 3.9325 16.80511719 3.9325 17.9453125 4.4375 C23.06601083 7.17996605 25.67402236 10.49872354 27.84765625 15.86328125 C30.16151497 25.71063349 29.91507242 36.84551771 26.6875 46.4375 C26.0275 46.4375 25.3675 46.4375 24.6875 46.4375 C24.5225 47.13875 24.3575 47.84 24.1875 48.5625 C21.77162216 53.19293252 17.3210207 56.12073965 12.6875 58.4375 C-12.21254199 60.87072886 -12.21254199 60.87072886 -21.3125 53.4375 C-28.03621309 47.17594901 -29.59890619 40.38629629 -30.27734375 31.40625 C-30.37775198 22.92733296 -28.52937472 15.74674951 -24.3125 8.4375 C-23.6525 8.4375 -22.9925 8.4375 -22.3125 8.4375 C-22.24933594 7.82390625 -22.18617188 7.2103125 -22.12109375 6.578125 C-21.3125 4.4375 -21.3125 4.4375 -19.22265625 3.171875 C-12.75507371 0.93616746 -6.79716916 0.05310834 0 0 Z M-9.3125 18.4375 C-12.27340686 24.50030928 -11.91343466 30.84678548 -10.375 37.25 C-9.3884377 39.94785047 -8.73978222 41.14496946 -6.35546875 42.77734375 C-2.2148621 44.42088949 0.18216956 44.55975737 4.5625 43.5 C9.02456524 40.55503694 10.05508229 37.62663822 11.5 32.625 C11.81959562 27.19187449 11.13722536 22.2496567 7.6875 17.9375 C2.45548337 14.01348753 -4.3795169 14.08486785 -9.3125 18.4375 Z " fill="#132140" transform="translate(467.3125,53.5625)"/>
<path d="M0 0 C1.12196777 -0.0153479 1.12196777 -0.0153479 2.26660156 -0.03100586 C8.90162003 0.07362666 14.22866628 1.71494419 19.8125 5.4375 C19.8125 6.0975 19.8125 6.7575 19.8125 7.4375 C20.8025 7.7675 21.7925 8.0975 22.8125 8.4375 C26.25789333 15.32828667 27.11206715 22.57668805 25.10546875 30.08203125 C23.43715673 33.12128245 21.9013498 33.89013232 18.8125 35.4375 C15.76635742 36.0534668 15.76635742 36.0534668 12.41796875 36.38671875 C11.21591797 36.51240234 10.01386719 36.63808594 8.77539062 36.76757812 C6.90657227 36.94450195 6.90657227 36.94450195 5 37.125 C3.73478516 37.25455078 2.46957031 37.38410156 1.16601562 37.51757812 C-1.95089374 37.83515002 -5.06849231 38.1413736 -8.1875 38.4375 C-6.8785428 41.55947478 -6.8785428 41.55947478 -4.1875 43.4375 C-1.81418375 43.5361464 0.56213923 43.56722239 2.9375 43.5625 C3.61458008 43.5620166 4.29166016 43.5615332 4.98925781 43.56103516 C8.56590177 43.53613773 12.02965053 43.36822913 15.5625 42.8125 C18.8125 42.4375 18.8125 42.4375 21.8125 44.4375 C22.46261677 47.47137824 22.31232478 50.38422256 21.8125 53.4375 C19.61418636 56.46965675 18.36286806 57.25404398 14.8125 58.4375 C-10.76139156 60.91772655 -10.76139156 60.91772655 -20.21484375 54.203125 C-26.94035622 48.1834584 -29.26801778 40.58883604 -30.578125 31.82421875 C-30.95947702 23.50257281 -28.61501679 14.11513862 -23.625 7.375 C-17.12112991 0.91930673 -8.73122666 0.0922565 0 0 Z M-10.1875 18.4375 C-10.5175 20.4175 -10.8475 22.3975 -11.1875 24.4375 C-4.9175 24.1075 1.3525 23.7775 7.8125 23.4375 C9.14609524 19.70437619 9.14609524 19.70437619 8 17.25 C6.93128013 15.28727807 6.93128013 15.28727807 4.8125 14.4375 C-1.15145662 13.7936038 -6.12160204 13.45349605 -10.1875 18.4375 Z " fill="#142241" transform="translate(409.1875,53.5625)"/>
<path d="M0 0 C0.85529297 -0.01611328 1.71058594 -0.03222656 2.59179688 -0.04882812 C10.85595923 -0.05513183 17.47254011 2.10183404 24.0625 7.3125 C28.89452584 13.52510465 29.37261746 21.31919245 29.36328125 28.8984375 C29.36756638 29.68143219 29.3718515 30.46442688 29.37626648 31.27114868 C29.38196555 32.90975991 29.38254304 34.54839641 29.37817383 36.18701172 C29.37498169 38.70192569 29.39863638 41.21569707 29.42382812 43.73046875 C29.42609829 45.32812352 29.42680593 46.92578145 29.42578125 48.5234375 C29.434991 49.27547455 29.44420074 50.0275116 29.45368958 50.80233765 C29.43481445 52.90771484 29.43481445 52.90771484 29.0625 56.3125 C25.43054504 58.73380331 23.67900652 58.52272785 19.375 58.4375 C18.19550781 58.41945312 17.01601563 58.40140625 15.80078125 58.3828125 C14.44533203 58.34800781 14.44533203 58.34800781 13.0625 58.3125 C12.7325 57.3225 12.4025 56.3325 12.0625 55.3125 C11.0725 54.8175 11.0725 54.8175 10.0625 54.3125 C10.07297363 53.36407227 10.08344727 52.41564453 10.09423828 51.43847656 C10.12836708 47.91241009 10.15342168 44.38651971 10.17236328 40.86035156 C10.18240744 39.33558377 10.19604531 37.81083516 10.21337891 36.28613281 C10.23769738 34.09174862 10.24899889 31.89761958 10.2578125 29.703125 C10.26828613 28.38344727 10.27875977 27.06376953 10.28955078 25.70410156 C10.0790614 22.55988817 9.8151717 20.87961887 8.0625 18.3125 C5.21361383 16.40114537 2.8933602 16.0395331 -0.5 16.0625 C-1.64662109 16.05476563 -1.64662109 16.05476563 -2.81640625 16.046875 C-5.23732762 16.1895439 -5.23732762 16.1895439 -7.9375 18.3125 C-10.81767579 26.28163505 -10.33702326 34.76018513 -10.46923828 43.13549805 C-10.50295589 45.07616002 -10.54818628 47.01661126 -10.59375 48.95703125 C-10.61244141 50.10534424 -10.63113281 51.25365723 -10.65039062 52.43676758 C-10.9375 55.3125 -10.9375 55.3125 -12.9375 58.3125 C-16.1953125 58.60546875 -16.1953125 58.60546875 -20.0625 58.5 C-21.98449219 58.45939453 -21.98449219 58.45939453 -23.9453125 58.41796875 C-24.93273437 58.38316406 -25.92015625 58.34835938 -26.9375 58.3125 C-29.00591019 51.5080871 -29.247603 45.21130299 -29.1875 38.125 C-29.18290771 37.01745361 -29.17831543 35.90990723 -29.17358398 34.76879883 C-29.08872713 27.11875677 -28.63729166 19.79406474 -26.9375 12.3125 C-26.78474609 11.25869141 -26.78474609 11.25869141 -26.62890625 10.18359375 C-25.64838592 7.53009522 -24.16411313 6.71006985 -21.8125 5.1875 C-21.06742187 4.68992187 -20.32234375 4.19234375 -19.5546875 3.6796875 C-13.15870182 0.33850095 -7.05075921 -0.02644696 0 0 Z " fill="#152341" transform="translate(346.9375,53.6875)"/>
<path d="M0 0 C3.0139312 3.24674008 2.41246753 6.75344918 2.30859375 11.015625 C2.31568359 11.83546875 2.32277344 12.6553125 2.33007812 13.5 C2.2657005 19.56140141 2.2657005 19.56140141 0.34399414 21.7734375 C-0.14206299 22.18335937 -0.62812012 22.59328125 -1.12890625 23.015625 C-0.41734375 23.6653125 -0.41734375 23.6653125 0.30859375 24.328125 C3.70140257 27.99235852 3.08855132 32.70226658 3.1875 37.40234375 C3.2082811 38.21935257 3.22906219 39.03636139 3.25047302 39.87812805 C3.31582454 42.48637534 3.37478648 45.09472275 3.43359375 47.703125 C3.47679267 49.47201554 3.5204074 51.24089597 3.56445312 53.00976562 C3.67149118 57.34494963 3.77279919 61.68023429 3.87109375 66.015625 C5.85109375 66.675625 7.83109375 67.335625 9.87109375 68.015625 C9.21109375 69.335625 8.55109375 70.655625 7.87109375 72.015625 C8.9835144 72.045354 8.9835144 72.045354 10.1184082 72.07568359 C13.47383209 72.17085428 16.82862661 72.28056594 20.18359375 72.390625 C21.35083984 72.4215625 22.51808594 72.4525 23.72070312 72.484375 C24.83896484 72.52304688 25.95722656 72.56171875 27.109375 72.6015625 C28.65685425 72.64869385 28.65685425 72.64869385 30.2355957 72.69677734 C32.87109375 73.015625 32.87109375 73.015625 35.87109375 75.015625 C36.20109375 72.375625 36.53109375 69.735625 36.87109375 67.015625 C37.20109375 67.015625 37.53109375 67.015625 37.87109375 67.015625 C38.36609375 71.965625 38.36609375 71.965625 38.87109375 77.015625 C39.53109375 77.015625 40.19109375 77.015625 40.87109375 77.015625 C41.20109375 78.995625 41.53109375 80.975625 41.87109375 83.015625 C40.88109375 83.510625 40.88109375 83.510625 39.87109375 84.015625 C39.54109375 83.355625 39.21109375 82.695625 38.87109375 82.015625 C37.55109375 84.655625 36.23109375 87.295625 34.87109375 90.015625 C29.28437181 90.08998751 23.69794036 90.14432754 18.11083984 90.18041992 C16.21170022 90.19547191 14.31259516 90.21591816 12.41357422 90.24194336 C9.67797294 90.27848492 6.94283275 90.29538738 4.20703125 90.30859375 C3.36304779 90.32407761 2.51906433 90.33956146 1.64950562 90.35551453 C-3.37072615 90.35693579 -6.76516985 89.77936724 -11.12890625 87.015625 C-15.40486613 81.96647785 -16.25492865 76.402706 -16.26171875 70.01953125 C-16.26397461 68.83020996 -16.26623047 67.64088867 -16.26855469 66.41552734 C-16.2637207 65.14918457 -16.25888672 63.8828418 -16.25390625 62.578125 C-16.24907227 61.28600098 -16.24423828 59.99387695 -16.23925781 58.66259766 C-16.21524684 54.78002323 -16.17625819 50.89798073 -16.12890625 47.015625 C-16.11633789 45.90396973 -16.10376953 44.79231445 -16.09082031 43.64697266 C-16.04591571 40.72679881 -15.97026511 37.80967108 -15.87890625 34.890625 C-15.8648877 34.02767822 -15.85086914 33.16473145 -15.83642578 32.27563477 C-15.5990197 26.48753278 -15.5990197 26.48753278 -13.08203125 23.9609375 C-12.4375 23.64898437 -11.79296875 23.33703125 -11.12890625 23.015625 C-11.77859375 22.70625 -12.42828125 22.396875 -13.09765625 22.078125 C-15.85423411 19.27913825 -15.6508235 17.3185352 -15.67578125 13.5 C-15.6603125 12.68015625 -15.64484375 11.8603125 -15.62890625 11.015625 C-15.65210937 9.78585938 -15.65210937 9.78585938 -15.67578125 8.53125 C-15.63669762 2.55145393 -15.63669762 2.55145393 -13.21875 0 C-8.34594484 -2.29522785 -4.95905281 -2.29299322 0 0 Z " fill="#2662E6" transform="translate(43.12890625,21.984375)"/>
<path d="M0 0 C0.86625 0.01546875 1.7325 0.0309375 2.625 0.046875 C5 0.25 5 0.25 8 1.25 C10.59460444 6.43920889 9.35628209 14.64925596 9.4050293 20.42358398 C9.42653764 22.33717983 9.46055484 24.25067921 9.50756836 26.16381836 C9.974993 45.36815086 9.974993 45.36815086 4.59008789 51.72436523 C4.06535889 52.22782471 3.54062988 52.73128418 3 53.25 C2.22716675 54.06162598 2.22716675 54.06162598 1.4387207 54.88964844 C-2.57851811 58.68806261 -7.87766848 58.68870913 -13.125 58.9375 C-13.87765137 58.97512451 -14.63030273 59.01274902 -15.40576172 59.05151367 C-26.08937837 59.50533304 -33.43761359 59.12491562 -42.1875 52.625 C-48.74758595 44.02902531 -48.59981593 34.60898863 -48.46655273 24.27954102 C-48.43727175 21.79311815 -48.44604008 19.30879154 -48.45898438 16.82226562 C-48.45275498 15.23696881 -48.44437031 13.65167867 -48.43359375 12.06640625 C-48.43652939 11.3258046 -48.43946503 10.58520294 -48.44248962 9.82215881 C-48.38812885 6.87254189 -48.34766985 4.7646177 -46.66894531 2.27978516 C-43.96202043 0.60953806 -41.43616219 0.96971795 -38.3125 1.0625 C-36.54326172 1.10310547 -36.54326172 1.10310547 -34.73828125 1.14453125 C-33.83464844 1.17933594 -32.93101562 1.21414062 -32 1.25 C-29.80371939 4.77304398 -29.83022182 7.45070257 -30.0234375 11.546875 C-30.075 12.75214844 -30.1265625 13.95742187 -30.1796875 15.19921875 C-30.24414062 16.45347656 -30.30859375 17.70773438 -30.375 19 C-30.43171875 20.26972656 -30.4884375 21.53945312 -30.546875 22.84765625 C-30.68828958 25.98234615 -30.83969991 29.11622836 -31 32.25 C-30.34 32.58 -29.68 32.91 -29 33.25 C-29.66 33.25 -30.32 33.25 -31 33.25 C-31 33.91 -31 34.57 -31 35.25 C-30.34 35.25 -29.68 35.25 -29 35.25 C-29 36.013125 -29 36.77625 -29 37.5625 C-28.29054058 40.2884489 -28.29054058 40.2884489 -26.3984375 41.28515625 C-20.54376751 43.71518337 -15.99899727 43.24966576 -10 41.25 C-9.2279669 36.4288585 -8.85802045 31.77082337 -8.7890625 26.890625 C-8.76103388 25.51431021 -8.7323698 24.13800824 -8.703125 22.76171875 C-8.66168101 20.61995267 -8.62473722 18.4784373 -8.59863281 16.33642578 C-8.57108404 14.24984384 -8.52527385 12.1643057 -8.4765625 10.078125 C-8.45674316 8.8396582 -8.43692383 7.60119141 -8.41650391 6.32519531 C-8 3.25 -8 3.25 -6.61865234 1.34375 C-4.35199878 -0.18786508 -2.70999251 -0.08065454 0 0 Z " fill="#132140" transform="translate(253,53.75)"/>
<path d="M0 0 C1.29067383 -0.0309375 1.29067383 -0.0309375 2.60742188 -0.0625 C8.48751393 -0.09794893 14.02337804 0.48896222 19.3125 3.25 C21.78193529 6.95415293 21.78163089 8.87144505 21.3125 13.25 C19.8125 15.25 19.8125 15.25 17.3125 16.25 C15.51873077 16.08077649 13.72390963 15.88911845 11.94921875 15.578125 C8.40307489 15.1368271 4.87922129 15.16281536 1.3125 15.1875 C0.62889404 15.19160889 -0.05471191 15.19571777 -0.7590332 15.19995117 C-2.40189119 15.21263814 -4.04470583 15.23074851 -5.6875 15.25 C-6.0175 16.24 -6.3475 17.23 -6.6875 18.25 C-0.74202293 20.38746645 4.97737454 22.30728144 11.25 23.1875 C16.02594167 23.95825716 18.31884986 25.29065627 21.3125 29.25 C24.47582357 33.99498536 24.75982245 39.7956766 24.03125 45.421875 C23.1841652 48.72550572 22.13382091 51.25156436 19.3125 53.25 C18.6525 53.25 17.9925 53.25 17.3125 53.25 C17.3125 53.91 17.3125 54.57 17.3125 55.25 C12.61798214 57.98724239 8.53578317 58.8042648 3.1875 59 C2.44266357 59.03383789 1.69782715 59.06767578 0.93041992 59.10253906 C-16.99302358 59.77329488 -16.99302358 59.77329488 -23.6875 55.25 C-24.89022819 52.84454362 -24.78821472 51.30003047 -24.75 48.625 C-24.74097656 47.80773437 -24.73195313 46.99046875 -24.72265625 46.1484375 C-24.71105469 45.52195313 -24.69945312 44.89546875 -24.6875 44.25 C-20.88725907 42.83595686 -17.75827118 41.90107676 -13.6875 42.25 C-13.3575 42.58 -13.0275 42.91 -12.6875 43.25 C-10.60930264 43.48775987 -8.52405612 43.66513113 -6.4375 43.8125 C-5.29796875 43.89628906 -4.1584375 43.98007813 -2.984375 44.06640625 C-0.20783379 44.22102407 2.53300503 44.2865723 5.3125 44.25 C4.9825 42.27 4.6525 40.29 4.3125 38.25 C-2.08965071 36.5005382 -2.08965071 36.5005382 -8.6875 36.25 C-8.6875 35.59 -8.6875 34.93 -8.6875 34.25 C-10.0178125 34.064375 -10.0178125 34.064375 -11.375 33.875 C-17.34473615 32.74863469 -20.19964853 31.35721108 -23.6875 26.25 C-25.65642351 20.34322946 -25.38671467 13.69725134 -23.6875 7.75 C-17.79732695 0.38728369 -8.71989105 0.05110559 0 0 Z " fill="#162442" transform="translate(290.6875,53.75)"/>
<path d="M0 0 C1.27617187 0.02320313 2.55234375 0.04640625 3.8671875 0.0703125 C5.78917969 0.09738281 5.78917969 0.09738281 7.75 0.125 C9.23113281 0.15980469 9.23113281 0.15980469 10.7421875 0.1953125 C13.14420254 4.39411044 12.90082899 7.43606791 12.7421875 12.1953125 C13.69480469 12.17210937 14.64742187 12.14890625 15.62890625 12.125 C16.88316406 12.10695313 18.13742188 12.08890625 19.4296875 12.0703125 C21.29173828 12.03550781 21.29173828 12.03550781 23.19140625 12 C26.60589611 12.18781572 28.75786307 12.57140984 31.7421875 14.1953125 C34.08768424 17.71355761 34.32210153 19.05306944 33.7421875 23.1953125 C31.75466421 25.84405463 30.19162834 27.89160955 26.83129883 28.59570312 C24.67675777 28.68685776 22.58230443 28.6328528 20.4296875 28.5078125 C19.68912109 28.48525391 18.94855469 28.46269531 18.18554688 28.43945312 C16.37021393 28.380894 14.55593069 28.29122136 12.7421875 28.1953125 C12.82276011 32.15449927 12.93562695 36.11211087 13.0546875 40.0703125 C13.07724609 41.19824219 13.09980469 42.32617188 13.12304688 43.48828125 C13.1762207 45.10283203 13.1762207 45.10283203 13.23046875 46.75 C13.25665283 47.74499512 13.28283691 48.73999023 13.30981445 49.76513672 C13.45249756 50.56709473 13.59518066 51.36905273 13.7421875 52.1953125 C18.93169051 55.65498118 22.70273323 55.22088021 28.7421875 54.1953125 C30.7421875 54.1953125 30.7421875 54.1953125 32.3671875 55.7578125 C34.27640575 59.14233577 34.21290024 61.36236589 33.7421875 65.1953125 C32.234375 67.86328125 32.234375 67.86328125 29.7421875 70.1953125 C26.78776758 70.7628957 24.3892263 71.02938543 21.4296875 71.0703125 C20.69556641 71.10382813 19.96144531 71.13734375 19.20507812 71.171875 C12.55377126 71.40794623 6.23368988 71.35104403 0.7421875 67.1953125 C-5.82808356 60.24959737 -5.55549316 52.92490615 -5.5234375 43.8671875 C-5.52535095 42.68183411 -5.5272644 41.49648071 -5.52923584 40.27520752 C-5.53059387 37.77721951 -5.52692419 35.27922436 -5.51855469 32.78125 C-5.50781205 28.94515301 -5.5184827 25.10952032 -5.53125 21.2734375 C-5.52992908 18.84635313 -5.5273681 16.41926905 -5.5234375 13.9921875 C-5.52748596 12.84014832 -5.53153442 11.68810913 -5.53570557 10.50115967 C-5.52940125 9.43955627 -5.52309692 8.37795288 -5.51660156 7.28417969 C-5.51501038 6.34741394 -5.51341919 5.41064819 -5.51177979 4.44549561 C-5.07625799 0.58671599 -3.72317871 0.22321215 0 0 Z " fill="#11203F" transform="translate(170.2578125,41.8046875)"/>
<path d="M0 0 C1.1446875 0.0309375 2.289375 0.061875 3.46875 0.09375 C4.6134375 0.1040625 5.758125 0.114375 6.9375 0.125 C10.28362784 0.64244245 10.99425368 0.9563598 12.96875 3.59375 C13.3429718 5.8704834 13.3429718 5.8704834 13.34106445 8.56835938 C13.35040764 10.0850824 13.35040764 10.0850824 13.35993958 11.63244629 C13.35072983 12.72311401 13.34152008 13.81378174 13.33203125 14.9375 C13.33252975 16.05813843 13.33302826 17.17877686 13.33354187 18.33337402 C13.33120025 20.70387545 13.32146664 23.07437931 13.30493164 25.44482422 C13.28134361 29.07932703 13.28436974 32.71309638 13.29101562 36.34765625 C13.28543887 38.64844189 13.27832901 40.94922443 13.26953125 43.25 C13.27089836 44.88600159 13.27089836 44.88600159 13.27229309 46.55505371 C13.26276108 47.56620239 13.25322906 48.57735107 13.2434082 49.61914062 C13.23880081 50.5094397 13.23419342 51.39973877 13.22944641 52.3170166 C12.96875 54.59375 12.96875 54.59375 10.96875 57.59375 C7.81640625 58.0625 7.81640625 58.0625 4.03125 58.09375 C2.78472656 58.1246875 1.53820312 58.155625 0.25390625 58.1875 C-3.03125 57.59375 -3.03125 57.59375 -4.71166992 55.71875 C-6.63990631 51.15234376 -6.45990494 46.90915649 -6.4296875 42 C-6.43255768 40.97571899 -6.43542786 39.95143799 -6.43838501 38.89611816 C-6.44042307 36.73428798 -6.43491128 34.57243926 -6.42236328 32.41064453 C-6.40630647 29.10537402 -6.42222124 25.80132632 -6.44140625 22.49609375 C-6.43942377 20.39322647 -6.43558001 18.29035996 -6.4296875 16.1875 C-6.43576019 15.20092407 -6.44183289 14.21434814 -6.4480896 13.19787598 C-6.3257605 1.23906649 -6.3257605 1.23906649 0 0 Z " fill="#0C1B3C" transform="translate(146.03125,54.40625)"/>
<path d="M0 0 C3.0139312 3.24674008 2.41246753 6.75344918 2.30859375 11.015625 C2.31568359 11.83546875 2.32277344 12.6553125 2.33007812 13.5 C2.2657005 19.56140141 2.2657005 19.56140141 0.34399414 21.7734375 C-0.14206299 22.18335937 -0.62812012 22.59328125 -1.12890625 23.015625 C-0.41734375 23.6653125 -0.41734375 23.6653125 0.30859375 24.328125 C3.70140257 27.99235852 3.08855132 32.70226658 3.1875 37.40234375 C3.2082811 38.21935257 3.22906219 39.03636139 3.25047302 39.87812805 C3.31582454 42.48637534 3.37478648 45.09472275 3.43359375 47.703125 C3.47679267 49.47201554 3.5204074 51.24089597 3.56445312 53.00976562 C3.67149118 57.34494963 3.77279919 61.68023429 3.87109375 66.015625 C5.85109375 66.675625 7.83109375 67.335625 9.87109375 68.015625 C9.21109375 69.335625 8.55109375 70.655625 7.87109375 72.015625 C8.9835144 72.045354 8.9835144 72.045354 10.1184082 72.07568359 C13.47383209 72.17085428 16.82862661 72.28056594 20.18359375 72.390625 C21.35083984 72.4215625 22.51808594 72.4525 23.72070312 72.484375 C24.83896484 72.52304688 25.95722656 72.56171875 27.109375 72.6015625 C28.65685425 72.64869385 28.65685425 72.64869385 30.2355957 72.69677734 C32.87109375 73.015625 32.87109375 73.015625 35.87109375 75.015625 C36.20109375 72.375625 36.53109375 69.735625 36.87109375 67.015625 C37.20109375 67.015625 37.53109375 67.015625 37.87109375 67.015625 C38.36609375 71.965625 38.36609375 71.965625 38.87109375 77.015625 C39.53109375 77.015625 40.19109375 77.015625 40.87109375 77.015625 C41.20109375 78.995625 41.53109375 80.975625 41.87109375 83.015625 C40.88109375 83.510625 40.88109375 83.510625 39.87109375 84.015625 C39.54109375 83.355625 39.21109375 82.695625 38.87109375 82.015625 C37.55109375 84.655625 36.23109375 87.295625 34.87109375 90.015625 C29.28437181 90.08998751 23.69794036 90.14432754 18.11083984 90.18041992 C16.21170022 90.19547191 14.31259516 90.21591816 12.41357422 90.24194336 C9.67797294 90.27848492 6.94283275 90.29538738 4.20703125 90.30859375 C3.36304779 90.32407761 2.51906433 90.33956146 1.64950562 90.35551453 C-3.37259392 90.35693632 -6.76620632 89.78214343 -11.12890625 87.015625 C-13.57511798 84.40633249 -14.12890625 83.64531276 -14.12890625 80.015625 C-11.12890625 81.015625 -11.12890625 81.015625 -9.56640625 83.515625 C-6.4258153 86.73674392 -4.4091948 86.67544811 -0.0546875 86.875 C2.34153916 86.99017244 4.63937385 87.22448807 7.015625 87.5234375 C12.30533242 88.13093121 17.55179378 88.16294374 22.87109375 88.140625 C24.30001953 88.14642578 24.30001953 88.14642578 25.7578125 88.15234375 C26.66144531 88.15105469 27.56507812 88.14976563 28.49609375 88.1484375 C29.31335938 88.14730957 30.130625 88.14618164 30.97265625 88.14501953 C32.88199834 88.22384918 32.88199834 88.22384918 33.87109375 87.015625 C34.1030224 85.50093052 34.28324613 83.97807938 34.43359375 82.453125 C34.57942708 80.97395833 34.72526042 79.49479167 34.87109375 78.015625 C26.6715903 76.08474522 18.77421787 75.63553768 10.37890625 75.44921875 C8.96738281 75.40474609 8.96738281 75.40474609 7.52734375 75.359375 C6.67978516 75.34068359 5.83222656 75.32199219 4.95898438 75.30273438 C2.87109375 75.015625 2.87109375 75.015625 0.87109375 73.015625 C0.59262085 70.99081421 0.59262085 70.99081421 0.55224609 68.47412109 C0.5323764 67.53329681 0.51250671 66.59247253 0.49203491 65.62313843 C0.4804837 64.60539337 0.4689325 63.58764832 0.45703125 62.5390625 C0.4376651 61.49867828 0.41829895 60.45829407 0.39834595 59.38638306 C0.33843648 56.0545478 0.29211923 52.72267821 0.24609375 49.390625 C0.20792445 47.13540137 0.16887335 44.88019248 0.12890625 42.625 C0.03272576 37.08867225 -0.05228821 31.55225615 -0.12890625 26.015625 C-1.54667807 26.10347838 -2.96319664 26.21167147 -4.37890625 26.328125 C-5.1678125 26.38613281 -5.95671875 26.44414063 -6.76953125 26.50390625 C-9.62719464 27.12369748 -11.06507705 27.94586818 -13.12890625 30.015625 C-13.74182966 32.15856946 -13.74182966 32.15856946 -13.67480469 34.57885742 C-13.69452332 35.49958542 -13.71424194 36.42031342 -13.73455811 37.36894226 C-13.73578674 38.35965225 -13.73701538 39.35036224 -13.73828125 40.37109375 C-13.7548175 41.38786697 -13.77135376 42.4046402 -13.78839111 43.45222473 C-13.83701039 46.7025854 -13.85827331 49.95247778 -13.87890625 53.203125 C-13.90705422 55.4056227 -13.93697998 57.60809845 -13.96875 59.81054688 C-14.04277271 65.21215416 -14.09433348 70.613629 -14.12890625 76.015625 C-14.78890625 76.015625 -15.44890625 76.015625 -16.12890625 76.015625 C-16.31654246 48.47929014 -16.31654246 48.47929014 -15.87890625 34.890625 C-15.86480713 34.02800049 -15.85070801 33.16537598 -15.83618164 32.27661133 C-15.59944005 26.48795473 -15.59944005 26.48795473 -13.08203125 23.9609375 C-12.4375 23.64898437 -11.79296875 23.33703125 -11.12890625 23.015625 C-11.77859375 22.70625 -12.42828125 22.396875 -13.09765625 22.078125 C-15.85423411 19.27913825 -15.6508235 17.3185352 -15.67578125 13.5 C-15.6603125 12.68015625 -15.64484375 11.8603125 -15.62890625 11.015625 C-15.65210937 9.78585938 -15.65210937 9.78585938 -15.67578125 8.53125 C-15.63669762 2.55145393 -15.63669762 2.55145393 -13.21875 0 C-8.34594484 -2.29522785 -4.95905281 -2.29299322 0 0 Z " fill="#335BB8" transform="translate(43.12890625,21.984375)"/>
<path d="M0 0 C3.01844746 3.29112234 2.28179158 6.92763911 2.109375 11.21484375 C2.09132813 12.05982422 2.07328125 12.90480469 2.0546875 13.77539062 C2.00758086 15.85985948 1.93583733 17.94374519 1.859375 20.02734375 C-0.120625 20.68734375 -2.100625 21.34734375 -4.140625 22.02734375 C-4.140625 22.68734375 -4.140625 23.34734375 -4.140625 24.02734375 C-12.27778738 23.24492429 -12.27778738 23.24492429 -15.140625 20.02734375 C-15.74688954 17.02056777 -15.69831219 14.08476477 -15.640625 11.02734375 C-15.65609375 10.2075 -15.6715625 9.38765625 -15.6875 8.54296875 C-15.64841637 2.56317268 -15.64841637 2.56317268 -13.23046875 0.01171875 C-8.34766682 -2.28821786 -4.97707346 -2.26148046 0 0 Z " fill="#172544" transform="translate(43.140625,21.97265625)"/>
<path d="M0 0 C2.86160593 0.38560647 5.13132065 1.18593256 7.75390625 2.37109375 C7.72077897 4.45510109 7.65126756 6.53855141 7.56640625 8.62109375 C7.53160156 9.78125 7.49679688 10.94140625 7.4609375 12.13671875 C6.75390625 15.37109375 6.75390625 15.37109375 4.59765625 17.71484375 C1.44659833 19.55007529 -0.95629861 20.14606582 -4.55859375 20.62109375 C-5.62722656 20.770625 -6.69585937 20.92015625 -7.796875 21.07421875 C-9.00923828 21.22117187 -9.00923828 21.22117187 -10.24609375 21.37109375 C-12.71861617 14.30275282 -14.23342352 9.52641963 -10.87109375 2.49609375 C-7.2626018 -0.4250664 -4.5234018 -0.10695109 0 0 Z " fill="#2662E6" transform="translate(65.24609375,66.62890625)"/>
<path d="M0 0 C2.9375 1.5 2.9375 1.5 5 4 C6.18603403 7.73756776 6.20267638 10.98661808 5.4375 14.8125 C3.3650354 17.96625048 1.57012088 18.80995971 -2 20 C-6.24925806 20.05622837 -9.41053907 19.39297395 -13 17 C-14.16076583 13.03469928 -14.26938338 9.12651232 -13.3125 5.125 C-10.06571607 -0.13169779 -5.98150699 -1.03252204 0 0 Z " fill="#2562E7" transform="translate(154,30)"/>
<path d="M0 0 C0.33 0 0.66 0 1 0 C1.495 4.95 1.495 4.95 2 10 C2.66 10 3.32 10 4 10 C4.495 12.97 4.495 12.97 5 16 C4.01 16.495 4.01 16.495 3 17 C2.505 16.01 2.505 16.01 2 15 C0.68 17.64 -0.64 20.28 -2 23 C-7.58672194 23.07436251 -13.17315339 23.12870254 -18.76025391 23.16479492 C-20.65939353 23.17984691 -22.55849859 23.20029316 -24.45751953 23.22631836 C-27.19312081 23.26285992 -29.928261 23.27976238 -32.6640625 23.29296875 C-33.50804596 23.30845261 -34.35202942 23.32393646 -35.22158813 23.33988953 C-40.24368767 23.34131132 -43.63730007 22.76651843 -48 20 C-50.44621173 17.39070749 -51 16.62968776 -51 13 C-48 14 -48 14 -46.4375 16.5 C-43.29690905 19.72111892 -41.28028855 19.65982311 -36.92578125 19.859375 C-34.52955459 19.97454744 -32.2317199 20.20886307 -29.85546875 20.5078125 C-24.56576133 21.11530621 -19.31929997 21.14731874 -14 21.125 C-12.57107422 21.13080078 -12.57107422 21.13080078 -11.11328125 21.13671875 C-10.20964844 21.13542969 -9.30601563 21.13414063 -8.375 21.1328125 C-7.55773437 21.13168457 -6.74046875 21.13055664 -5.8984375 21.12939453 C-3.98909541 21.20822418 -3.98909541 21.20822418 -3 20 C-2.76807135 18.48530552 -2.58784762 16.96245438 -2.4375 15.4375 C-2.293125 13.973125 -2.14875 12.50875 -2 11 C-6.95 10.01 -6.95 10.01 -12 9 C-12 8.67 -12 8.34 -12 8 C-10.35492782 7.80593522 -8.70890406 7.61992065 -7.0625 7.4375 C-5.68771484 7.28087891 -5.68771484 7.28087891 -4.28515625 7.12109375 C-3.53105469 7.08113281 -2.77695313 7.04117188 -2 7 C-1.505 7.495 -1.505 7.495 -1 8 C-0.67 5.36 -0.34 2.72 0 0 Z " fill="#3763BA" transform="translate(80,89)"/>
<path d="M0 0 C2.31 0.33 4.62 0.66 7 1 C7.33 1.99 7.66 2.98 8 4 C7.34 4 6.68 4 6 4 C5.8453125 5.794375 5.8453125 5.794375 5.6875 7.625 C5.17369392 11.59467984 4.25262926 14.62105611 2 18 C-0.6875 19.375 -0.6875 19.375 -3 20 C-3.2475 19.21625 -3.495 18.4325 -3.75 17.625 C-5.15389099 14.67682892 -6.00675737 14.0975223 -9 13 C-7.68 13 -6.36 13 -5 13 C-5.226875 12.443125 -5.45375 11.88625 -5.6875 11.3125 C-6 9 -6 9 -4.8125 6.3125 C-3 4 -3 4 -0.8125 3.1875 C0.0846875 3.0946875 0.0846875 3.0946875 1 3 C0.67 2.01 0.34 1.02 0 0 Z " fill="#212F4C" transform="translate(300,77)"/>
<path d="M0 0 C0.99 0.33 1.98 0.66 3 1 C2.01 1.495 2.01 1.495 1 2 C1.474375 2.433125 1.94875 2.86625 2.4375 3.3125 C5.46363463 6.5807254 5.10796112 9.95961558 5.0625 14.1875 C5.05347656 15.27417969 5.04445313 16.36085938 5.03515625 17.48046875 C5.02355469 18.31191406 5.01195313 19.14335938 5 20 C4.67 20 4.34 20 4 20 C3.66048381 18.43883181 3.32867456 16.87598662 3 15.3125 C2.814375 14.44238281 2.62875 13.57226562 2.4375 12.67578125 C2.01027953 10.06287036 1.92383799 7.64186962 2 5 C0.58222818 5.08785338 -0.83429039 5.19604647 -2.25 5.3125 C-3.03890625 5.37050781 -3.8278125 5.42851563 -4.640625 5.48828125 C-7.50224113 6.10892978 -8.85921555 7.01062735 -11 9 C-11.61292341 11.14294446 -11.61292341 11.14294446 -11.54589844 13.56323242 C-11.56561707 14.48396042 -11.58533569 15.40468842 -11.60565186 16.35331726 C-11.60688049 17.34402725 -11.60810913 18.33473724 -11.609375 19.35546875 C-11.62591125 20.37224197 -11.64244751 21.3890152 -11.65948486 22.43659973 C-11.70810414 25.6869604 -11.72936706 28.93685278 -11.75 32.1875 C-11.77814797 34.3899977 -11.80807373 36.59247345 -11.83984375 38.79492188 C-11.91386646 44.19652916 -11.96542723 49.598004 -12 55 C-12.66 55 -13.32 55 -14 55 C-14.18849893 27.33705671 -14.18849893 27.33705671 -13.6875 13.8125 C-13.66502197 12.94149658 -13.64254395 12.07049316 -13.61938477 11.1730957 C-13.51171875 8.76953125 -13.51171875 8.76953125 -13 5 C-9.7868736 2.85791573 -7.78934603 2.40312192 -4 2 C-3.34 2.33 -2.68 2.66 -2 3 C-2 2.34 -2 1.68 -2 1 C-1.34 0.67 -0.68 0.34 0 0 Z " fill="#718CC2" transform="translate(41,43)"/>
<path d="M0 0 C2.86160593 0.38560647 5.13132065 1.18593256 7.75390625 2.37109375 C7.72077897 4.45510109 7.65126756 6.53855141 7.56640625 8.62109375 C7.53160156 9.78125 7.49679688 10.94140625 7.4609375 12.13671875 C6.75390625 15.37109375 6.75390625 15.37109375 4.59765625 17.71484375 C1.44659833 19.55007529 -0.95629861 20.14606582 -4.55859375 20.62109375 C-5.62722656 20.770625 -6.69585937 20.92015625 -7.796875 21.07421875 C-9.00923828 21.22117187 -9.00923828 21.22117187 -10.24609375 21.37109375 C-12.71861617 14.30275282 -14.23342352 9.52641963 -10.87109375 2.49609375 C-7.2626018 -0.4250664 -4.5234018 -0.10695109 0 0 Z M-8.24609375 2.37109375 C-10.49437427 6.86765479 -10.41291647 10.44982341 -10.24609375 15.37109375 C-4.43562778 17.78031135 -0.14220629 17.3364646 5.75390625 15.37109375 C5.47202689 13.57786122 5.17807815 11.78652249 4.87890625 9.99609375 C4.63527344 8.49949219 4.63527344 8.49949219 4.38671875 6.97265625 C3.95802605 4.22858225 3.95802605 4.22858225 1.75390625 2.37109375 C-0.68622324 2.12821886 -0.68622324 2.12821886 -3.37109375 2.24609375 C-4.28117187 2.26414062 -5.19125 2.2821875 -6.12890625 2.30078125 C-6.82757813 2.32398437 -7.52625 2.3471875 -8.24609375 2.37109375 Z " fill="#3575D5" transform="translate(65.24609375,66.62890625)"/>
<path d="M0 0 C2.9375 1.5 2.9375 1.5 5 4 C6.18603403 7.73756776 6.20267638 10.98661808 5.4375 14.8125 C3.3650354 17.96625048 1.57012088 18.80995971 -2 20 C-6.24925806 20.05622837 -9.41053907 19.39297395 -13 17 C-14.16076583 13.03469928 -14.26938338 9.12651232 -13.3125 5.125 C-10.06571607 -0.13169779 -5.98150699 -1.03252204 0 0 Z M-10 3 C-12.20477292 5.83470803 -13.08977302 7.19204286 -12.6875 10.8125 C-12.460625 11.534375 -12.23375 12.25625 -12 13 C-11.34 13 -10.68 13 -10 13 C-10 13.99 -10 14.98 -10 16 C-7.03 16.495 -7.03 16.495 -4 17 C-4.33 15.68 -4.66 14.36 -5 13 C-4.34 13 -3.68 13 -3 13 C-3 14.65 -3 16.3 -3 18 C-2.01 18 -1.02 18 0 18 C0.33 15.69 0.66 13.38 1 11 C1.99 10.67 2.98 10.34 4 10 C2.48134786 5.70111387 2.48134786 5.70111387 0 2 C-3.66344611 1.86431681 -6.50615721 1.83538574 -10 3 Z " fill="#4178C9" transform="translate(154,30)"/>
<path d="M0 0 C2.9375 0.375 2.9375 0.375 6 1 C7.23278873 3.46557746 7.13348789 5.1038248 7.14526367 7.86108398 C7.15164352 8.8723082 7.15802338 9.88353241 7.16459656 10.92539978 C7.16570938 12.02122879 7.1668222 13.1170578 7.16796875 14.24609375 C7.17129715 15.36814713 7.17462555 16.4902005 7.17805481 17.64625549 C7.18312452 20.02271107 7.18546312 22.39917379 7.18530273 24.77563477 C7.18748884 28.41890138 7.20564329 32.06186514 7.22460938 35.70507812 C7.2275433 38.01041563 7.2295281 40.31575457 7.23046875 42.62109375 C7.23765427 43.71489853 7.24483978 44.80870331 7.25224304 45.93565369 C7.24916641 46.95003006 7.24608978 47.96440643 7.24291992 49.00952148 C7.24434494 49.90283676 7.24576996 50.79615204 7.24723816 51.71653748 C7 54 7 54 5 57 C3.0625 56.6875 3.0625 56.6875 1 56 C0.505 54.515 0.505 54.515 0 53 C2.475 52.505 2.475 52.505 5 52 C4.67 35.5 4.34 19 4 2 C2.68 2.33 1.36 2.66 0 3 C0 2.01 0 1.02 0 0 Z " fill="#707F95" transform="translate(152,55)"/>
<path d="M0 0 C1.093125 0.103125 2.18625 0.20625 3.3125 0.3125 C2.0625 1.8125 2.0625 1.8125 0.3125 3.3125 C-1.0075 3.3125 -2.3275 3.3125 -3.6875 3.3125 C-3.67702637 4.62968018 -3.66655273 5.94686035 -3.65576172 7.30395508 C-3.61959717 12.18478687 -3.59661241 17.06560679 -3.57763672 21.9465332 C-3.56757106 24.06016022 -3.55391743 26.1737733 -3.53662109 28.28735352 C-3.5123977 31.32311442 -3.50102262 34.35869143 -3.4921875 37.39453125 C-3.48186493 38.34149368 -3.47154236 39.28845612 -3.46090698 40.26411438 C-3.46075592 41.14480087 -3.46060486 42.02548737 -3.46044922 42.93286133 C-3.456008 43.70785477 -3.45156677 44.48284821 -3.44699097 45.28132629 C-3.6875 47.3125 -3.6875 47.3125 -5.6875 50.3125 C-5.90682879 43.99593433 -6.10164761 37.67895146 -6.27954102 31.36108398 C-6.34292139 29.21247302 -6.41188613 27.06401917 -6.48657227 24.91577148 C-6.59303126 21.82560278 -6.67931274 18.73542343 -6.76171875 15.64453125 C-6.79907639 14.68601761 -6.83643402 13.72750397 -6.87492371 12.73994446 C-7.1477389 0.60574058 -7.1477389 0.60574058 0 0 Z " fill="#232C3F" transform="translate(146.6875,54.6875)"/>
<path d="M0 0 C2.31 0.66 4.62 1.32 7 2 C6.34 3.32 5.68 4.64 5 6 C13.25 6.33 21.5 6.66 30 7 C30 7.33 30 7.66 30 8 C20.43 8 10.86 8 1 8 C0.67 5.36 0.34 2.72 0 0 Z " fill="#84A7E2" transform="translate(46,88)"/>
<path d="M0 0 C3 1 3 1 4.5625 3.5 C8.24202308 7.27386982 11.93048334 6.78600294 17 7 C18.70978667 7.17374857 20.41834537 7.36028974 22.125 7.5625 C23.40375 7.706875 24.6825 7.85125 26 8 C26 8.33 26 8.66 26 9 C23.2921468 9.25028042 20.58591064 9.47571011 17.875 9.6875 C16.73417969 9.79674805 16.73417969 9.79674805 15.5703125 9.90820312 C10.52830565 10.27766052 7.39375867 9.819775 3 7 C0.55378827 4.39070749 0 3.62968776 0 0 Z " fill="#597ECB" transform="translate(29,102)"/>
<path d="M0 0 C3.96 0.33 7.92 0.66 12 1 C12 1.33 12 1.66 12 2 C10.741875 2.226875 9.48375 2.45375 8.1875 2.6875 C4.96059443 3.48567452 4.21182409 3.73351162 2.0625 6.4375 C1.30507966 8.26421966 0.62534713 10.12395862 0 12 C0.99 12.33 1.98 12.66 3 13 C2.34 13 1.68 13 1 13 C0.67 13.66 0.34 14.32 0 15 C-2 13.625 -2 13.625 -4 12 C-4 11.34 -4 10.68 -4 10 C-3.01 10 -2.02 10 -1 10 C-1.020625 8.72125 -1.04125 7.4425 -1.0625 6.125 C-1.125 2.25 -1.125 2.25 0 0 Z " fill="#444E63" transform="translate(398,66)"/>
<path d="M0 0 C0 0.66 0 1.32 0 2 C-1.0725 2.2475 -2.145 2.495 -3.25 2.75 C-7.03658647 4.01219549 -8.57206878 4.91839499 -11 8 C-11.33 8.99 -11.66 9.98 -12 11 C-13.32 10.67 -14.64 10.34 -16 10 C-16.33 10.99 -16.66 11.98 -17 13 C-17.66 13 -18.32 13 -19 13 C-16.98283874 8.46138716 -15.0319694 4.93019044 -10.36328125 2.79296875 C-2.81338339 0 -2.81338339 0 0 0 Z " fill="#434A5E" transform="translate(402,54)"/>
<path d="M0 0 C3 1.6875 3 1.6875 5 4 C5.3125 6.75 5.3125 6.75 5 9 C4.360625 8.195625 3.72125 7.39125 3.0625 6.5625 C1.59396498 4.7249496 1.59396498 4.7249496 0 3 C-1.68608966 2.92794489 -3.37500659 2.91613932 -5.0625 2.9375 C-5.98160156 2.94652344 -6.90070313 2.95554688 -7.84765625 2.96484375 C-8.55792969 2.97644531 -9.26820313 2.98804688 -10 3 C-10.66 4.65 -11.32 6.3 -12 8 C-12.33 6.68 -12.66 5.36 -13 4 C-8.9099076 -0.0900924 -5.57966266 -1.11368267 0 0 Z " fill="#6082C4" transform="translate(154,30)"/>
<path d="M0 0 C3.3 0.33 6.6 0.66 10 1 C9.67 5.29 9.34 9.58 9 14 C6.65223022 11.65223022 6.65989737 10.69776681 6.1875 7.5 C5.77036561 5.10046199 5.77036561 5.10046199 5 3 C2.52985528 1.32386813 2.52985528 1.32386813 0 1 C0 0.67 0 0.34 0 0 Z " fill="#496BBF" transform="translate(63,68)"/>
<path d="M0 0 C1.18851563 0.00902344 2.37703125 0.01804688 3.6015625 0.02734375 C4.51679688 0.03894531 5.43203125 0.05054688 6.375 0.0625 C7.035 1.3825 7.695 2.7025 8.375 4.0625 C7.715 4.0625 7.055 4.0625 6.375 4.0625 C6.045 4.7225 5.715 5.3825 5.375 6.0625 C4.715 5.0725 4.055 4.0825 3.375 3.0625 C0.47891601 2.69751966 0.47891601 2.69751966 -2.75 2.875 C-3.84570312 2.90207031 -4.94140625 2.92914063 -6.0703125 2.95703125 C-7.33488281 3.00923828 -7.33488281 3.00923828 -8.625 3.0625 C-8.625 2.4025 -8.625 1.7425 -8.625 1.0625 C-5.74084117 -0.37957941 -3.20778472 -0.03144887 0 0 Z " fill="#41495E" transform="translate(214.625,54.9375)"/>
<path d="M0 0 C0.103125 0.639375 0.20625 1.27875 0.3125 1.9375 C0.6528125 2.9584375 0.6528125 2.9584375 1 4 C1.99 4.33 2.98 4.66 4 5 C-2.27 4.67 -8.54 4.34 -15 4 C-15 3.67 -15 3.34 -15 3 C-13.35 3 -11.7 3 -10 3 C-10 2.34 -10 1.68 -10 1 C-3.375 0.875 -3.375 0.875 0 2 C0 1.34 0 0.68 0 0 Z " fill="#2C354E" transform="translate(288,108)"/>
<path d="M0 0 C0.33 0 0.66 0 1 0 C1.48 6.36 1.48 6.36 -0.5 9 C-4.25929446 10.50371778 -7.04379351 9.72530452 -11 9 C-9.9375 7.4375 -9.9375 7.4375 -8 6 C-4.3125 6.3125 -4.3125 6.3125 -1 7 C-1.33 6.01 -1.66 5.02 -2 4 C-1.34 4 -0.68 4 0 4 C0 2.68 0 1.36 0 0 Z " fill="#535B6F" transform="translate(311,60)"/>
<path d="M0 0 C1.93166016 0.01740234 1.93166016 0.01740234 3.90234375 0.03515625 C5.19269531 0.04417969 6.48304688 0.05320313 7.8125 0.0625 C8.81152344 0.07410156 9.81054688 0.08570313 10.83984375 0.09765625 C10.83984375 1.08765625 10.83984375 2.07765625 10.83984375 3.09765625 C6.87984375 2.76765625 2.91984375 2.43765625 -1.16015625 2.09765625 C-2.15015625 3.58265625 -2.15015625 3.58265625 -3.16015625 5.09765625 C-4.15015625 5.59265625 -4.15015625 5.59265625 -5.16015625 6.09765625 C-4.08838165 0.12634059 -4.08838165 0.12634059 0 0 Z " fill="#4D5667" transform="translate(170.16015625,41.90234375)"/>
<path d="M0 0 C-3.27672915 2.90292752 -5.95282609 3.58029064 -10.25 4.1875 C-11.32765625 4.34605469 -12.4053125 4.50460938 -13.515625 4.66796875 C-14.33546875 4.77753906 -15.1553125 4.88710937 -16 5 C-15.67 4.01 -15.34 3.02 -15 2 C-12.3828125 1.015625 -12.3828125 1.015625 -9.125 0.25 C-8.05507813 -0.01296875 -6.98515625 -0.2759375 -5.8828125 -0.546875 C-3 -1 -3 -1 0 0 Z " fill="#5A7ECC" transform="translate(71,83)"/>
<path d="M0 0 C3.88862987 1.26117725 5.89375599 2.45264167 8 6 C8 6.66 8 7.32 8 8 C8.66 8.33 9.32 8.66 10 9 C9.67 9.99 9.34 10.98 9 12 C6 10 6 10 5 7 C4.34 6.67 3.68 6.34 3 6 C1.66666667 4.66666667 0.33333333 3.33333333 -1 2 C-0.67 1.34 -0.34 0.68 0 0 Z " fill="#414C5F" transform="translate(124,58)"/>
<path d="M0 0 C0.7734375 0.495 0.7734375 0.495 1.5625 1 C-1.62574568 2.59412284 -5.06646662 2.10174735 -8.5625 2.0625 C-9.31660156 2.05798828 -10.07070312 2.05347656 -10.84765625 2.04882812 C-12.71097127 2.03703499 -14.57424555 2.01909942 -16.4375 2 C-16.4375 1.67 -16.4375 1.34 -16.4375 1 C-10.92355289 -0.80047253 -5.62342008 -2.30704414 0 0 Z " fill="#666E80" transform="translate(199.4375,68)"/>
<path d="M0 0 C0.33 0.66 0.66 1.32 1 2 C0.01 2.33 -0.98 2.66 -2 3 C-3.68711423 4.6459651 -5.3545622 6.31237149 -7 8 C-7.99 8.495 -7.99 8.495 -9 9 C-10.13350534 11.01669827 -10.13350534 11.01669827 -11 13 C-12 11 -12 11 -11.125 7.625 C-9.59159771 4.14395878 -7.75243076 3.07390265 -4.3125 1.5625 C-2.88382772 1.01791838 -1.44865233 0.48895812 0 0 Z " fill="#677488" transform="translate(93,76)"/>
<path d="M0 0 C0.66 1.32 1.32 2.64 2 4 C-0.31 4.66 -2.62 5.32 -5 6 C-5.33 4.35 -5.66 2.7 -6 1 C-4 0 -4 0 0 0 Z M-8 6 C-7.01 6 -6.02 6 -5 6 C-5.33 6.66 -5.66 7.32 -6 8 C-6.66 7.34 -7.32 6.68 -8 6 Z " fill="#0C1A3A" transform="translate(300,77)"/>
<path d="M0 0 C0.33 0.66 0.66 1.32 1 2 C1.66 2 2.32 2 3 2 C2.67 4.31 2.34 6.62 2 9 C0.35 9.33 -1.3 9.66 -3 10 C-2.625 7.0625 -2.625 7.0625 -2 4 C-1.34 3.67 -0.68 3.34 0 3 C0 2.01 0 1.02 0 0 Z " fill="#3E67CD" transform="translate(157,37)"/>
<path d="M0 0 C1.65 0 3.3 0 5 0 C4.34 1.32 3.68 2.64 3 4 C2.01 4 1.02 4 0 4 C0 6.64 0 9.28 0 12 C-0.99 12.33 -1.98 12.66 -3 13 C-3.38281159 7.76824163 -2.21854707 4.62197306 0 0 Z " fill="#0D1A31" transform="translate(324,60)"/>
<path d="M0 0 C1.134375 0.020625 2.26875 0.04125 3.4375 0.0625 C2.1875 1.5625 2.1875 1.5625 0.4375 3.0625 C-0.8825 3.0625 -2.2025 3.0625 -3.5625 3.0625 C-3.5625 5.0425 -3.5625 7.0225 -3.5625 9.0625 C-4.5525 8.4025 -5.5425 7.7425 -6.5625 7.0625 C-4.33277027 0.07601351 -4.33277027 0.07601351 0 0 Z " fill="#424A60" transform="translate(146.5625,54.9375)"/>
<path d="M0 0 C0.33 0 0.66 0 1 0 C1.03738281 0.84304687 1.07476562 1.68609375 1.11328125 2.5546875 C1.17902344 3.65039062 1.24476563 4.74609375 1.3125 5.875 C1.37050781 6.96554688 1.42851562 8.05609375 1.48828125 9.1796875 C1.74158203 10.57574219 1.74158203 10.57574219 2 12 C4.67642489 14.18490007 4.67642489 14.18490007 7 14 C6.67 14.99 6.34 15.98 6 17 C4.02 16.34 2.04 15.68 0 15 C0 10.05 0 5.1 0 0 Z " fill="#3A4358" transform="translate(182,82)"/>
<path d="M0 0 C0 0.66 0 1.32 0 2 C1.32 1.67 2.64 1.34 4 1 C4.66 1.99 5.32 2.98 6 4 C5.01 5.485 5.01 5.485 4 7 C3.41798828 6.29423828 3.41798828 6.29423828 2.82421875 5.57421875 C0.52497076 3.59007113 -1.21311811 3.31466837 -4.1875 2.8125 C-5.53908203 2.57466797 -5.53908203 2.57466797 -6.91796875 2.33203125 C-7.60503906 2.22246094 -8.29210937 2.11289063 -9 2 C-9 1.67 -9 1.34 -9 1 C-5.846632 0.29925156 -3.27275026 0 0 0 Z " fill="#555C6E" transform="translate(352,67)"/>
<path d="M0 0 C2.0625 0.25 2.0625 0.25 4 1 C5.1482685 3.296537 5.11561175 4.58313167 5.09765625 7.1328125 C5.09282227 8.34130859 5.09282227 8.34130859 5.08789062 9.57421875 C5.07951172 10.41597656 5.07113281 11.25773437 5.0625 12.125 C5.05798828 12.97449219 5.05347656 13.82398437 5.04882812 14.69921875 C5.03702874 16.79950909 5.01909306 18.8997633 5 21 C4.67 21 4.34 21 4 21 C3.93941406 19.86820313 3.87882812 18.73640625 3.81640625 17.5703125 C3.73200083 16.08852855 3.64735283 14.6067584 3.5625 13.125 C3.52318359 12.37863281 3.48386719 11.63226563 3.44335938 10.86328125 C3.28426376 6.80013136 3.28426376 6.80013136 2 3 C-0.02463255 2.34786708 -0.02463255 2.34786708 -2 2 C-1.34 1.34 -0.68 0.68 0 0 Z " fill="#313948" transform="translate(257,54)"/>
<path d="M0 0 C0.86625 0.556875 0.86625 0.556875 1.75 1.125 C0.76 1.785 -0.23 2.445 -1.25 3.125 C-3.33594862 5.04407273 -4.64865709 6.72298564 -6.25 9.125 C-6.25 6.485 -6.25 3.845 -6.25 1.125 C-2.80384615 -1.09038462 -2.80384615 -1.09038462 0 0 Z " fill="#384151" transform="translate(272.25,96.875)"/>
<path d="M0 0 C5.70629354 0.42797202 9.41078616 2.84345952 14 6 C10.37673261 7.2077558 9.35853631 6.54311128 6 5 C6 4.34 6 3.68 6 3 C4.68 3 3.36 3 2 3 C2 2.34 2 1.68 2 1 C1.34 0.67 0.68 0.34 0 0 Z " fill="#444B60" transform="translate(476,55)"/>
<path d="M0 0 C1.875 0.25 1.875 0.25 4 1 C6.27746471 4.35293415 6.21133851 7.27842863 6.125 11.25 C6.10695313 12.32765625 6.08890625 13.4053125 6.0703125 14.515625 C6.04710937 15.33546875 6.02390625 16.1553125 6 17 C5.67 17 5.34 17 5 17 C3 7 3 7 2.55859375 4.29296875 C2.1665555 1.82012225 2.1665555 1.82012225 0 0 Z " fill="#4D6ABD" transform="translate(40,46)"/>
<path d="M0 0 C2.69082872 0.17635452 5.32851446 0.61835921 8 1 C7.67 1.99 7.34 2.98 7 4 C6.34 4 5.68 4 5 4 C4.67 4.99 4.34 5.98 4 7 C3.34 7 2.68 7 2 7 C1.87625 6.195625 1.7525 5.39125 1.625 4.5625 C1.315625 3.2940625 1.315625 3.2940625 1 2 C0.34 1.67 -0.32 1.34 -1 1 C-0.67 0.67 -0.34 0.34 0 0 Z " fill="#091838" transform="translate(169,43)"/>
<path d="M0 0 C0.33 0 0.66 0 1 0 C1.33 3.3 1.66 6.6 2 10 C2.66 10 3.32 10 4 10 C4.33 11.98 4.66 13.96 5 16 C4.34 16.33 3.68 16.66 3 17 C0.22324962 13.07173635 -0.34512366 10.46875108 -0.1875 5.6875 C-0.16042969 4.61886719 -0.13335937 3.55023438 -0.10546875 2.44921875 C-0.07066406 1.64097656 -0.03585938 0.83273438 0 0 Z " fill="#4F5D84" transform="translate(80,89)"/>
<path d="M0 0 C3.5625 0.375 3.5625 0.375 5.5 1.9375 C6.91157805 5.17582611 6.76395347 7.88313979 6.5625 11.375 C6.2325 11.375 5.9025 11.375 5.5625 11.375 C4.9025 9.065 4.2425 6.755 3.5625 4.375 C-0.8925 3.385 -0.8925 3.385 -5.4375 2.375 C-3.4375 0.375 -3.4375 0.375 0 0 Z " fill="#8B8DA4" transform="translate(197.4375,95.625)"/>
<path d="M0 0 C0.66 0 1.32 0 2 0 C2 0.66 2 1.32 2 2 C3.32 2 4.64 2 6 2 C6.66 3.65 7.32 5.3 8 7 C3.75177626 6.52797514 1.80010291 4.03344482 -1 1 C-0.67 0.67 -0.34 0.34 0 0 Z " fill="#0E1932" transform="translate(395,92)"/>
<path d="M0 0 C0 0.66 0 1.32 0 2 C-0.93972656 2.09087891 -0.93972656 2.09087891 -1.8984375 2.18359375 C-2.71570313 2.26738281 -3.53296875 2.35117187 -4.375 2.4375 C-5.18710938 2.51871094 -5.99921875 2.59992187 -6.8359375 2.68359375 C-9.04272805 2.89090114 -9.04272805 2.89090114 -11 4 C-11.66 3.67 -12.32 3.34 -13 3 C-13.33 3.66 -13.66 4.32 -14 5 C-14.66 4.34 -15.32 3.68 -16 3 C-10.71486893 0.66832453 -5.76330297 -0.16950891 0 0 Z " fill="#606679" transform="translate(101,54)"/>
<path d="M0 0 C2.0625 0.4375 2.0625 0.4375 4 1 C4 2.98 4 4.96 4 7 C2.68 7 1.36 7 0 7 C-0.38133299 5.0085944 -0.71325582 3.00720923 -1 1 C-0.67 0.67 -0.34 0.34 0 0 Z " fill="#0D1C34" transform="translate(178,44)"/>
<path d="M0 0 C1.51400391 0.01740234 1.51400391 0.01740234 3.05859375 0.03515625 C4.07050781 0.04417969 5.08242187 0.05320312 6.125 0.0625 C7.29869141 0.07990234 7.29869141 0.07990234 8.49609375 0.09765625 C8.49609375 0.42765625 8.49609375 0.75765625 8.49609375 1.09765625 C4.86609375 1.42765625 1.23609375 1.75765625 -2.50390625 2.09765625 C-2.83390625 3.08765625 -3.16390625 4.07765625 -3.50390625 5.09765625 C-4.16390625 5.09765625 -4.82390625 5.09765625 -5.50390625 5.09765625 C-3.09571996 0.12073791 -3.09571996 0.12073791 0 0 Z " fill="#5B8AD1" transform="translate(59.50390625,66.90234375)"/>
<path d="M0 0 C0.77601562 -0.00515625 1.55203125 -0.0103125 2.3515625 -0.015625 C4.375 0.25 4.375 0.25 6.375 2.25 C2.96360997 3.34651823 0.16844419 3.19215473 -3.375 2.8125 C-4.85226563 2.65974609 -4.85226563 2.65974609 -6.359375 2.50390625 C-7.10703125 2.42011719 -7.8546875 2.33632812 -8.625 2.25 C-5.63092177 0.52737965 -3.44750407 -0.02306023 0 0 Z " fill="#585D71" transform="translate(104.625,66.75)"/>
<path d="M0 0 C2.64 0 5.28 0 8 0 C8.33 0.99 8.66 1.98 9 3 C6.36 3 3.72 3 1 3 C0.67 2.01 0.34 1.02 0 0 Z " fill="#121C32" transform="translate(101,54)"/>
<path d="M0 0 C-2.49505962 2.49505962 -3.67328888 2.35948376 -7.125 2.625 C-8.03507812 2.69976563 -8.94515625 2.77453125 -9.8828125 2.8515625 C-10.93082031 2.92503906 -10.93082031 2.92503906 -12 3 C-8.09980994 -1.09850481 -5.48418308 -1.37104577 0 0 Z " fill="#6C7480" transform="translate(41,21)"/>
<path d="M0 0 C-5.41538462 3.07692308 -5.41538462 3.07692308 -8.375 2.6875 C-8.91125 2.460625 -9.4475 2.23375 -10 2 C-6.64272747 -1.86086341 -4.42408585 -2.94939057 0 0 Z " fill="#546272" transform="translate(430,109)"/>
<path d="M0 0 C2.25 0.26953125 2.25 0.26953125 5 0.8125 C6.36125 1.06966797 6.36125 1.06966797 7.75 1.33203125 C8.4925 1.55246094 9.235 1.77289063 10 2 C10.33 2.66 10.66 3.32 11 4 C9.37419034 3.88601335 7.74932843 3.75844341 6.125 3.625 C5.22007812 3.55539063 4.31515625 3.48578125 3.3828125 3.4140625 C1 3 1 3 -1 1 C-0.67 0.67 -0.34 0.34 0 0 Z " fill="#535C77" transform="translate(354,54)"/>
<path d="M0 0 C0.8353125 0.556875 0.8353125 0.556875 1.6875 1.125 C0.0375 1.455 -1.6125 1.785 -3.3125 2.125 C-3.3125 2.785 -3.3125 3.445 -3.3125 4.125 C-5.6225 3.795 -7.9325 3.465 -10.3125 3.125 C-3.58836207 -1.35775862 -3.58836207 -1.35775862 0 0 Z " fill="#182B57" transform="translate(42.3125,41.875)"/>
<path d="M0 0 C2.39763185 2.39763185 2.34280586 3.33273498 2.625 6.625 C2.69976562 7.44226563 2.77453125 8.25953125 2.8515625 9.1015625 C2.90054688 9.72804688 2.94953125 10.35453125 3 11 C2.01 10.34 1.02 9.68 0 9 C-0.29296875 6.8359375 -0.29296875 6.8359375 -0.1875 4.375 C-0.16042969 3.55773437 -0.13335937 2.74046875 -0.10546875 1.8984375 C-0.05326172 0.95871094 -0.05326172 0.95871094 0 0 Z " fill="#2158C4" transform="translate(44,86)"/>
<path d="M0 0 C0.66 0.33 1.32 0.66 2 1 C2.4140625 3.28515625 2.4140625 3.28515625 2.625 6.0625 C2.69976562 6.98160156 2.77453125 7.90070313 2.8515625 8.84765625 C2.92503906 9.91306641 2.92503906 9.91306641 3 11 C2.01 10.67 1.02 10.34 0 10 C-0.95024979 6.30458414 -0.95024979 3.69541586 0 0 Z " fill="#4A5261" transform="translate(84,59)"/>
<path d="M0 0 C1.37478516 0.01740234 1.37478516 0.01740234 2.77734375 0.03515625 C3.69644531 0.04417969 4.61554688 0.05320313 5.5625 0.0625 C6.27277344 0.07410156 6.98304688 0.08570313 7.71484375 0.09765625 C7.38484375 0.75765625 7.05484375 1.41765625 6.71484375 2.09765625 C4.9375 2.58203125 4.9375 2.58203125 2.77734375 2.84765625 C2.06707031 2.945625 1.35679687 3.04359375 0.625 3.14453125 C-1.28515625 3.09765625 -1.28515625 3.09765625 -3.28515625 1.09765625 C-2.28515625 0.09765625 -2.28515625 0.09765625 0 0 Z " fill="#151F31" transform="translate(346.28515625,53.90234375)"/>
<path d="M0 0 C1 3 1 3 0.00390625 5.04296875 C-0.47175781 5.75066406 -0.94742187 6.45835938 -1.4375 7.1875 C-1.91058594 7.90292969 -2.38367188 8.61835937 -2.87109375 9.35546875 C-3.24363281 9.89816406 -3.61617188 10.44085938 -4 11 C-5.33332095 8.3333581 -4.67102033 6.83319697 -4 4 C-3.34 4 -2.68 4 -2 4 C-1.34 2.68 -0.68 1.36 0 0 Z " fill="#666B80" transform="translate(261,95)"/>
<path d="M0 0 C0.93423645 3.01031744 1.04449911 3.86650268 0 7 C-1.32 6.67 -2.64 6.34 -4 6 C-3.67 4.35 -3.34 2.7 -3 1 C-2.01 0.67 -1.02 0.34 0 0 Z " fill="#0B1834" transform="translate(310,60)"/>
<path d="M0 0 C0 0.66 0 1.32 0 2 C-1.32 2 -2.64 2 -4 2 C-4 2.66 -4 3.32 -4 4 C-6.31 4.33 -8.62 4.66 -11 5 C-7.29318258 1.89428811 -4.9778821 0 0 0 Z " fill="#3C4357" transform="translate(336,55)"/>
<path d="M0 0 C2.31 0 4.62 0 7 0 C5 3 5 3 3 3.75 C1 4 1 4 -1 3 C-0.67 2.01 -0.34 1.02 0 0 Z " fill="#1D293F" transform="translate(337,54)"/>
<path d="M0 0 C2 2 2 2 2 5 C2.66 5 3.32 5 4 5 C4 5.99 4 6.98 4 8 C4.66 8.33 5.32 8.66 6 9 C5.01 9.33 4.02 9.66 3 10 C2.34 9.67 1.68 9.34 1 9 C0.5859375 6.93359375 0.5859375 6.93359375 0.375 4.4375 C0.30023438 3.61121094 0.22546875 2.78492188 0.1484375 1.93359375 C0.09945312 1.29550781 0.05046875 0.65742187 0 0 Z " fill="#587AC7" transform="translate(140,38)"/>
<path d="M0 0 C-0.33 1.65 -0.66 3.3 -1 5 C-2.9375 4.6875 -2.9375 4.6875 -5 4 C-5.33 3.01 -5.66 2.02 -6 1 C-3 0 -3 0 0 0 Z " fill="#202C4A" transform="translate(158,107)"/>
<path d="M0 0 C0.99 0.66 1.98 1.32 3 2 C1.625 3.5 1.625 3.5 0 5 C-0.66 5 -1.32 5 -2 5 C-2 5.66 -2 6.32 -2 7 C-2.66 6.67 -3.32 6.34 -4 6 C-4 5.34 -4 4.68 -4 4 C-3.34 4 -2.68 4 -2 4 C-1.34 2.68 -0.68 1.36 0 0 Z " fill="#384056" transform="translate(310,102)"/>
<path d="M0 0 C2.5722047 1.28610235 3.00974907 2.33393981 4 5 C3.625 7.25 3.625 7.25 3 9 C2.67 7.68 2.34 6.36 2 5 C1.01 5 0.02 5 -1 5 C-0.67 3.35 -0.34 1.7 0 0 Z " fill="#464F61" transform="translate(430,61)"/>
<path d="M0 0 C0.33 0 0.66 0 1 0 C1 1.65 1 3.3 1 5 C2.32 5.66 3.64 6.32 5 7 C4.34 7 3.68 7 3 7 C2.67 7.99 2.34 8.98 2 10 C-0.09350689 6.5980513 -0.17942163 3.94727588 0 0 Z " fill="#424A6A" transform="translate(438,87)"/>
<path d="M0 0 C0.66 1.32 1.32 2.64 2 4 C1 7 1 7 -3 9 C-2.01 6.03 -1.02 3.06 0 0 Z " fill="#535B6D" transform="translate(442,63)"/>
<path d="M0 0 C-2.97 2.475 -2.97 2.475 -6 5 C-6.66 4.67 -7.32 4.34 -8 4 C-7.25 2.0625 -7.25 2.0625 -6 0 C-3.40292416 -1.05506206 -2.5386068 -1.2693034 0 0 Z " fill="#747A86" transform="translate(452,58)"/>
<path d="M0 0 C1.67542976 0.28604898 3.34385343 0.61781233 5 1 C4.38125 1.598125 3.7625 2.19625 3.125 2.8125 C0.86323046 5.00811144 0.86323046 5.00811144 -1 8 C-1.04241723 5.66705225 -1.04092937 3.33297433 -1 1 C-0.67 0.67 -0.34 0.34 0 0 Z " fill="#5B83D2" transform="translate(29,47)"/>
<path d="M0 0 C0.33 0 0.66 0 1 0 C0.67 2.64 0.34 5.28 0 8 C-0.66 8 -1.32 8 -2 8 C-1.125 1.125 -1.125 1.125 0 0 Z " fill="#333A4F" transform="translate(246,85)"/>
<path d="M0 0 C0.33 0 0.66 0 1 0 C1.1875 2.375 1.1875 2.375 1 5 C0.01 5.66 -0.98 6.32 -2 7 C-2.33 5.68 -2.66 4.36 -3 3 C-2.34 3 -1.68 3 -1 3 C-0.67 2.01 -0.34 1.02 0 0 Z " fill="#0A173A" transform="translate(219,57)"/>
<path d="M0 0 C0.99 0.33 1.98 0.66 3 1 C1.7260411 3.03833424 0.38938077 5.03852126 -1 7 C-1.66 7 -2.32 7 -3 7 C-1.125 2.25 -1.125 2.25 0 0 Z " fill="#2960D8" transform="translate(144,33)"/>
<path d="" fill="#000000" transform="translate(0,0)"/>
<path d="" fill="#0000FF" transform="translate(0,0)"/>
</svg>
